<mxfile host="app.diagrams.net" agent="Mozilla/5.0 (Macintosh; Intel Mac OS X 10_15_7) AppleWebKit/537.36 (KHTML, like Gecko) Chrome/132.0.0.0 Safari/537.36" version="26.0.11">
  <diagram name="Page-1" id="c394TahqnJZH6Vf2DxkL">
    <mxGraphModel dx="1194" dy="658" grid="1" gridSize="10" guides="1" tooltips="1" connect="1" arrows="1" fold="1" page="1" pageScale="1" pageWidth="827" pageHeight="1169" math="0" shadow="0">
      <root>
        <mxCell id="0" />
        <mxCell id="1" parent="0" />
        <mxCell id="KslEX3aBoe71YTRa4qj4-4" value="&lt;span style=&quot;text-align: left;&quot;&gt;Types_rental&lt;/span&gt;" style="swimlane;fontStyle=0;childLayout=stackLayout;horizontal=1;startSize=26;fillColor=none;horizontalStack=0;resizeParent=1;resizeParentMax=0;resizeLast=0;collapsible=1;marginBottom=0;whiteSpace=wrap;html=1;" parent="1" vertex="1">
          <mxGeometry x="414" y="458" width="140" height="52" as="geometry" />
        </mxCell>
        <mxCell id="KslEX3aBoe71YTRa4qj4-7" value="label" style="text;strokeColor=none;fillColor=none;align=left;verticalAlign=top;spacingLeft=4;spacingRight=4;overflow=hidden;rotatable=0;points=[[0,0.5],[1,0.5]];portConstraint=eastwest;whiteSpace=wrap;html=1;" parent="KslEX3aBoe71YTRa4qj4-4" vertex="1">
          <mxGeometry y="26" width="140" height="26" as="geometry" />
        </mxCell>
        <mxCell id="KslEX3aBoe71YTRa4qj4-11" value="&lt;span style=&quot;text-align: left;&quot;&gt;Rental&lt;/span&gt;" style="swimlane;fontStyle=0;childLayout=stackLayout;horizontal=1;startSize=26;fillColor=none;horizontalStack=0;resizeParent=1;resizeParentMax=0;resizeLast=0;collapsible=1;marginBottom=0;whiteSpace=wrap;html=1;" parent="1" vertex="1">
          <mxGeometry x="250" y="320" width="140" height="156" as="geometry" />
        </mxCell>
        <mxCell id="KslEX3aBoe71YTRa4qj4-12" value="title" style="text;strokeColor=none;fillColor=none;align=left;verticalAlign=top;spacingLeft=4;spacingRight=4;overflow=hidden;rotatable=0;points=[[0,0.5],[1,0.5]];portConstraint=eastwest;whiteSpace=wrap;html=1;" parent="KslEX3aBoe71YTRa4qj4-11" vertex="1">
          <mxGeometry y="26" width="140" height="26" as="geometry" />
        </mxCell>
        <mxCell id="KslEX3aBoe71YTRa4qj4-14" value="description" style="text;strokeColor=none;fillColor=none;align=left;verticalAlign=top;spacingLeft=4;spacingRight=4;overflow=hidden;rotatable=0;points=[[0,0.5],[1,0.5]];portConstraint=eastwest;whiteSpace=wrap;html=1;" parent="KslEX3aBoe71YTRa4qj4-11" vertex="1">
          <mxGeometry y="52" width="140" height="26" as="geometry" />
        </mxCell>
        <mxCell id="KslEX3aBoe71YTRa4qj4-15" value="capacity" style="text;strokeColor=none;fillColor=none;align=left;verticalAlign=top;spacingLeft=4;spacingRight=4;overflow=hidden;rotatable=0;points=[[0,0.5],[1,0.5]];portConstraint=eastwest;whiteSpace=wrap;html=1;" parent="KslEX3aBoe71YTRa4qj4-11" vertex="1">
          <mxGeometry y="78" width="140" height="26" as="geometry" />
        </mxCell>
        <mxCell id="KslEX3aBoe71YTRa4qj4-16" value="nbr_localization" style="text;strokeColor=none;fillColor=none;align=left;verticalAlign=top;spacingLeft=4;spacingRight=4;overflow=hidden;rotatable=0;points=[[0,0.5],[1,0.5]];portConstraint=eastwest;whiteSpace=wrap;html=1;" parent="KslEX3aBoe71YTRa4qj4-11" vertex="1">
          <mxGeometry y="104" width="140" height="26" as="geometry" />
        </mxCell>
        <mxCell id="KslEX3aBoe71YTRa4qj4-18" value="isActive" style="text;strokeColor=none;fillColor=none;align=left;verticalAlign=top;spacingLeft=4;spacingRight=4;overflow=hidden;rotatable=0;points=[[0,0.5],[1,0.5]];portConstraint=eastwest;whiteSpace=wrap;html=1;" parent="KslEX3aBoe71YTRa4qj4-11" vertex="1">
          <mxGeometry y="130" width="140" height="26" as="geometry" />
        </mxCell>
        <mxCell id="KslEX3aBoe71YTRa4qj4-20" value="&lt;span style=&quot;text-align: left;&quot;&gt;Price&lt;/span&gt;" style="swimlane;fontStyle=0;childLayout=stackLayout;horizontal=1;startSize=26;fillColor=none;horizontalStack=0;resizeParent=1;resizeParentMax=0;resizeLast=0;collapsible=1;marginBottom=0;whiteSpace=wrap;html=1;" parent="1" vertex="1">
          <mxGeometry x="420" y="30" width="140" height="78" as="geometry" />
        </mxCell>
        <mxCell id="KslEX3aBoe71YTRa4qj4-21" value="rental_id" style="text;strokeColor=none;fillColor=none;align=left;verticalAlign=top;spacingLeft=4;spacingRight=4;overflow=hidden;rotatable=0;points=[[0,0.5],[1,0.5]];portConstraint=eastwest;whiteSpace=wrap;html=1;" parent="KslEX3aBoe71YTRa4qj4-20" vertex="1">
          <mxGeometry y="26" width="140" height="26" as="geometry" />
        </mxCell>
        <mxCell id="KslEX3aBoe71YTRa4qj4-23" value="price_per_night" style="text;strokeColor=none;fillColor=none;align=left;verticalAlign=top;spacingLeft=4;spacingRight=4;overflow=hidden;rotatable=0;points=[[0,0.5],[1,0.5]];portConstraint=eastwest;whiteSpace=wrap;html=1;" parent="KslEX3aBoe71YTRa4qj4-20" vertex="1">
          <mxGeometry y="52" width="140" height="26" as="geometry" />
        </mxCell>
        <mxCell id="KslEX3aBoe71YTRa4qj4-27" value="&lt;span style=&quot;text-align: left;&quot;&gt;User&lt;/span&gt;" style="swimlane;fontStyle=0;childLayout=stackLayout;horizontal=1;startSize=26;fillColor=none;horizontalStack=0;resizeParent=1;resizeParentMax=0;resizeLast=0;collapsible=1;marginBottom=0;whiteSpace=wrap;html=1;" parent="1" vertex="1">
          <mxGeometry x="50" y="30" width="140" height="260" as="geometry" />
        </mxCell>
        <mxCell id="KslEX3aBoe71YTRa4qj4-28" value="firstname" style="text;strokeColor=none;fillColor=none;align=left;verticalAlign=top;spacingLeft=4;spacingRight=4;overflow=hidden;rotatable=0;points=[[0,0.5],[1,0.5]];portConstraint=eastwest;whiteSpace=wrap;html=1;" parent="KslEX3aBoe71YTRa4qj4-27" vertex="1">
          <mxGeometry y="26" width="140" height="26" as="geometry" />
        </mxCell>
        <mxCell id="KslEX3aBoe71YTRa4qj4-29" value="lastname" style="text;strokeColor=none;fillColor=none;align=left;verticalAlign=top;spacingLeft=4;spacingRight=4;overflow=hidden;rotatable=0;points=[[0,0.5],[1,0.5]];portConstraint=eastwest;whiteSpace=wrap;html=1;" parent="KslEX3aBoe71YTRa4qj4-27" vertex="1">
          <mxGeometry y="52" width="140" height="26" as="geometry" />
        </mxCell>
        <mxCell id="KslEX3aBoe71YTRa4qj4-30" value="email" style="text;strokeColor=none;fillColor=none;align=left;verticalAlign=top;spacingLeft=4;spacingRight=4;overflow=hidden;rotatable=0;points=[[0,0.5],[1,0.5]];portConstraint=eastwest;whiteSpace=wrap;html=1;" parent="KslEX3aBoe71YTRa4qj4-27" vertex="1">
          <mxGeometry y="78" width="140" height="26" as="geometry" />
        </mxCell>
        <mxCell id="KslEX3aBoe71YTRa4qj4-31" value="password" style="text;strokeColor=none;fillColor=none;align=left;verticalAlign=top;spacingLeft=4;spacingRight=4;overflow=hidden;rotatable=0;points=[[0,0.5],[1,0.5]];portConstraint=eastwest;whiteSpace=wrap;html=1;" parent="KslEX3aBoe71YTRa4qj4-27" vertex="1">
          <mxGeometry y="104" width="140" height="26" as="geometry" />
        </mxCell>
        <mxCell id="KslEX3aBoe71YTRa4qj4-32" value="date_of_birth" style="text;strokeColor=none;fillColor=none;align=left;verticalAlign=top;spacingLeft=4;spacingRight=4;overflow=hidden;rotatable=0;points=[[0,0.5],[1,0.5]];portConstraint=eastwest;whiteSpace=wrap;html=1;" parent="KslEX3aBoe71YTRa4qj4-27" vertex="1">
          <mxGeometry y="130" width="140" height="26" as="geometry" />
        </mxCell>
        <mxCell id="KslEX3aBoe71YTRa4qj4-33" value="role" style="text;strokeColor=none;fillColor=none;align=left;verticalAlign=top;spacingLeft=4;spacingRight=4;overflow=hidden;rotatable=0;points=[[0,0.5],[1,0.5]];portConstraint=eastwest;whiteSpace=wrap;html=1;" parent="KslEX3aBoe71YTRa4qj4-27" vertex="1">
          <mxGeometry y="156" width="140" height="26" as="geometry" />
        </mxCell>
        <mxCell id="KslEX3aBoe71YTRa4qj4-34" value="username" style="text;strokeColor=none;fillColor=none;align=left;verticalAlign=top;spacingLeft=4;spacingRight=4;overflow=hidden;rotatable=0;points=[[0,0.5],[1,0.5]];portConstraint=eastwest;whiteSpace=wrap;html=1;" parent="KslEX3aBoe71YTRa4qj4-27" vertex="1">
          <mxGeometry y="182" width="140" height="26" as="geometry" />
        </mxCell>
        <mxCell id="KslEX3aBoe71YTRa4qj4-35" value="phone" style="text;strokeColor=none;fillColor=none;align=left;verticalAlign=top;spacingLeft=4;spacingRight=4;overflow=hidden;rotatable=0;points=[[0,0.5],[1,0.5]];portConstraint=eastwest;whiteSpace=wrap;html=1;" parent="KslEX3aBoe71YTRa4qj4-27" vertex="1">
          <mxGeometry y="208" width="140" height="26" as="geometry" />
        </mxCell>
        <mxCell id="KslEX3aBoe71YTRa4qj4-36" value="address" style="text;strokeColor=none;fillColor=none;align=left;verticalAlign=top;spacingLeft=4;spacingRight=4;overflow=hidden;rotatable=0;points=[[0,0.5],[1,0.5]];portConstraint=eastwest;whiteSpace=wrap;html=1;" parent="KslEX3aBoe71YTRa4qj4-27" vertex="1">
          <mxGeometry y="234" width="140" height="26" as="geometry" />
        </mxCell>
        <mxCell id="KslEX3aBoe71YTRa4qj4-37" value="&lt;span style=&quot;text-align: left;&quot;&gt;Reservation&lt;/span&gt;" style="swimlane;fontStyle=0;childLayout=stackLayout;horizontal=1;startSize=26;fillColor=none;horizontalStack=0;resizeParent=1;resizeParentMax=0;resizeLast=0;collapsible=1;marginBottom=0;whiteSpace=wrap;html=1;" parent="1" vertex="1">
          <mxGeometry x="240" y="30" width="140" height="260" as="geometry" />
        </mxCell>
        <mxCell id="KslEX3aBoe71YTRa4qj4-38" value="rental_id" style="text;strokeColor=none;fillColor=none;align=left;verticalAlign=top;spacingLeft=4;spacingRight=4;overflow=hidden;rotatable=0;points=[[0,0.5],[1,0.5]];portConstraint=eastwest;whiteSpace=wrap;html=1;" parent="KslEX3aBoe71YTRa4qj4-37" vertex="1">
          <mxGeometry y="26" width="140" height="26" as="geometry" />
        </mxCell>
        <mxCell id="KslEX3aBoe71YTRa4qj4-39" value="renter_id" style="text;strokeColor=none;fillColor=none;align=left;verticalAlign=top;spacingLeft=4;spacingRight=4;overflow=hidden;rotatable=0;points=[[0,0.5],[1,0.5]];portConstraint=eastwest;whiteSpace=wrap;html=1;" parent="KslEX3aBoe71YTRa4qj4-37" vertex="1">
          <mxGeometry y="52" width="140" height="26" as="geometry" />
        </mxCell>
        <mxCell id="KslEX3aBoe71YTRa4qj4-40" value="date_start" style="text;strokeColor=none;fillColor=none;align=left;verticalAlign=top;spacingLeft=4;spacingRight=4;overflow=hidden;rotatable=0;points=[[0,0.5],[1,0.5]];portConstraint=eastwest;whiteSpace=wrap;html=1;" parent="KslEX3aBoe71YTRa4qj4-37" vertex="1">
          <mxGeometry y="78" width="140" height="26" as="geometry" />
        </mxCell>
        <mxCell id="KslEX3aBoe71YTRa4qj4-41" value="date_end" style="text;strokeColor=none;fillColor=none;align=left;verticalAlign=top;spacingLeft=4;spacingRight=4;overflow=hidden;rotatable=0;points=[[0,0.5],[1,0.5]];portConstraint=eastwest;whiteSpace=wrap;html=1;" parent="KslEX3aBoe71YTRa4qj4-37" vertex="1">
          <mxGeometry y="104" width="140" height="26" as="geometry" />
        </mxCell>
        <mxCell id="KslEX3aBoe71YTRa4qj4-42" value="nbr_adult" style="text;strokeColor=none;fillColor=none;align=left;verticalAlign=top;spacingLeft=4;spacingRight=4;overflow=hidden;rotatable=0;points=[[0,0.5],[1,0.5]];portConstraint=eastwest;whiteSpace=wrap;html=1;" parent="KslEX3aBoe71YTRa4qj4-37" vertex="1">
          <mxGeometry y="130" width="140" height="26" as="geometry" />
        </mxCell>
        <mxCell id="KslEX3aBoe71YTRa4qj4-43" value="nbr_minor" style="text;strokeColor=none;fillColor=none;align=left;verticalAlign=top;spacingLeft=4;spacingRight=4;overflow=hidden;rotatable=0;points=[[0,0.5],[1,0.5]];portConstraint=eastwest;whiteSpace=wrap;html=1;" parent="KslEX3aBoe71YTRa4qj4-37" vertex="1">
          <mxGeometry y="156" width="140" height="26" as="geometry" />
        </mxCell>
        <mxCell id="KslEX3aBoe71YTRa4qj4-44" value="status" style="text;strokeColor=none;fillColor=none;align=left;verticalAlign=top;spacingLeft=4;spacingRight=4;overflow=hidden;rotatable=0;points=[[0,0.5],[1,0.5]];portConstraint=eastwest;whiteSpace=wrap;html=1;" parent="KslEX3aBoe71YTRa4qj4-37" vertex="1">
          <mxGeometry y="182" width="140" height="26" as="geometry" />
        </mxCell>
        <mxCell id="KslEX3aBoe71YTRa4qj4-45" value="checked" style="text;strokeColor=none;fillColor=none;align=left;verticalAlign=top;spacingLeft=4;spacingRight=4;overflow=hidden;rotatable=0;points=[[0,0.5],[1,0.5]];portConstraint=eastwest;whiteSpace=wrap;html=1;" parent="KslEX3aBoe71YTRa4qj4-37" vertex="1">
          <mxGeometry y="208" width="140" height="26" as="geometry" />
        </mxCell>
        <mxCell id="kpTzGPzJomDM3rRYmNFj-2" value="AppliedPriceTotal" style="text;strokeColor=none;fillColor=none;align=left;verticalAlign=top;spacingLeft=4;spacingRight=4;overflow=hidden;rotatable=0;points=[[0,0.5],[1,0.5]];portConstraint=eastwest;whiteSpace=wrap;html=1;" parent="KslEX3aBoe71YTRa4qj4-37" vertex="1">
          <mxGeometry y="234" width="140" height="26" as="geometry" />
        </mxCell>
        <mxCell id="KslEX3aBoe71YTRa4qj4-47" value="&lt;span style=&quot;text-align: left;&quot;&gt;Season&lt;/span&gt;" style="swimlane;fontStyle=0;childLayout=stackLayout;horizontal=1;startSize=26;fillColor=none;horizontalStack=0;resizeParent=1;resizeParentMax=0;resizeLast=0;collapsible=1;marginBottom=0;whiteSpace=wrap;html=1;" parent="1" vertex="1">
          <mxGeometry x="434" y="160" width="140" height="104" as="geometry" />
        </mxCell>
        <mxCell id="KslEX3aBoe71YTRa4qj4-48" value="label" style="text;strokeColor=none;fillColor=none;align=left;verticalAlign=top;spacingLeft=4;spacingRight=4;overflow=hidden;rotatable=0;points=[[0,0.5],[1,0.5]];portConstraint=eastwest;whiteSpace=wrap;html=1;" parent="KslEX3aBoe71YTRa4qj4-47" vertex="1">
          <mxGeometry y="26" width="140" height="26" as="geometry" />
        </mxCell>
        <mxCell id="KslEX3aBoe71YTRa4qj4-49" value="season_start" style="text;strokeColor=none;fillColor=none;align=left;verticalAlign=top;spacingLeft=4;spacingRight=4;overflow=hidden;rotatable=0;points=[[0,0.5],[1,0.5]];portConstraint=eastwest;whiteSpace=wrap;html=1;" parent="KslEX3aBoe71YTRa4qj4-47" vertex="1">
          <mxGeometry y="52" width="140" height="26" as="geometry" />
        </mxCell>
        <mxCell id="KslEX3aBoe71YTRa4qj4-50" value="season_end" style="text;strokeColor=none;fillColor=none;align=left;verticalAlign=top;spacingLeft=4;spacingRight=4;overflow=hidden;rotatable=0;points=[[0,0.5],[1,0.5]];portConstraint=eastwest;whiteSpace=wrap;html=1;" parent="KslEX3aBoe71YTRa4qj4-47" vertex="1">
          <mxGeometry y="78" width="140" height="26" as="geometry" />
        </mxCell>
        <mxCell id="KslEX3aBoe71YTRa4qj4-56" value="&lt;span style=&quot;text-align: left;&quot;&gt;Equipment&lt;/span&gt;" style="swimlane;fontStyle=0;childLayout=stackLayout;horizontal=1;startSize=26;fillColor=none;horizontalStack=0;resizeParent=1;resizeParentMax=0;resizeLast=0;collapsible=1;marginBottom=0;whiteSpace=wrap;html=1;" parent="1" vertex="1">
          <mxGeometry x="470" y="362" width="140" height="52" as="geometry" />
        </mxCell>
        <mxCell id="KslEX3aBoe71YTRa4qj4-57" value="label" style="text;strokeColor=none;fillColor=none;align=left;verticalAlign=top;spacingLeft=4;spacingRight=4;overflow=hidden;rotatable=0;points=[[0,0.5],[1,0.5]];portConstraint=eastwest;whiteSpace=wrap;html=1;" parent="KslEX3aBoe71YTRa4qj4-56" vertex="1">
          <mxGeometry y="26" width="140" height="26" as="geometry" />
        </mxCell>
        <mxCell id="mjj2ta2AXYqXHHgOmP91-1" value="" style="endArrow=none;html=1;rounded=0;endFill=0;entryX=0.25;entryY=0;entryDx=0;entryDy=0;exitX=0.25;exitY=0;exitDx=0;exitDy=0;" parent="1" source="KslEX3aBoe71YTRa4qj4-27" target="KslEX3aBoe71YTRa4qj4-37" edge="1">
          <mxGeometry relative="1" as="geometry">
            <mxPoint x="30" y="170" as="sourcePoint" />
            <mxPoint x="190" y="170" as="targetPoint" />
            <Array as="points">
              <mxPoint x="85" y="10" />
              <mxPoint x="275" y="10" />
            </Array>
          </mxGeometry>
        </mxCell>
        <mxCell id="mjj2ta2AXYqXHHgOmP91-2" value="Effectuer" style="edgeLabel;resizable=0;html=1;;align=center;verticalAlign=middle;" parent="mjj2ta2AXYqXHHgOmP91-1" connectable="0" vertex="1">
          <mxGeometry relative="1" as="geometry">
            <mxPoint as="offset" />
          </mxGeometry>
        </mxCell>
        <mxCell id="mjj2ta2AXYqXHHgOmP91-5" value="" style="endArrow=none;html=1;rounded=0;endFill=0;entryX=1.001;entryY=0.13;entryDx=0;entryDy=0;exitX=0.5;exitY=0;exitDx=0;exitDy=0;entryPerimeter=0;" parent="1" source="KslEX3aBoe71YTRa4qj4-4" target="KslEX3aBoe71YTRa4qj4-11" edge="1">
          <mxGeometry relative="1" as="geometry">
            <mxPoint x="79.5" y="258" as="sourcePoint" />
            <mxPoint x="390" y="463" as="targetPoint" />
            <Array as="points">
              <mxPoint x="484" y="448" />
              <mxPoint x="430" y="448" />
              <mxPoint x="430" y="340" />
              <mxPoint x="400" y="340" />
            </Array>
          </mxGeometry>
        </mxCell>
        <mxCell id="mjj2ta2AXYqXHHgOmP91-6" value="Déterminer" style="edgeLabel;resizable=0;html=1;;align=center;verticalAlign=middle;" parent="mjj2ta2AXYqXHHgOmP91-5" connectable="0" vertex="1">
          <mxGeometry relative="1" as="geometry" />
        </mxCell>
        <mxCell id="mjj2ta2AXYqXHHgOmP91-7" value="" style="endArrow=none;html=1;rounded=0;endFill=0;entryX=1.001;entryY=0.191;entryDx=0;entryDy=0;exitX=1.001;exitY=0.126;exitDx=0;exitDy=0;exitPerimeter=0;entryPerimeter=0;" parent="1" source="KslEX3aBoe71YTRa4qj4-20" target="KslEX3aBoe71YTRa4qj4-47" edge="1">
          <mxGeometry relative="1" as="geometry">
            <mxPoint x="590" y="144" as="sourcePoint" />
            <mxPoint x="665" y="144" as="targetPoint" />
            <Array as="points">
              <mxPoint x="600" y="40" />
              <mxPoint x="600" y="180" />
            </Array>
          </mxGeometry>
        </mxCell>
        <mxCell id="mjj2ta2AXYqXHHgOmP91-8" value="Adapter" style="edgeLabel;resizable=0;html=1;;align=center;verticalAlign=middle;" parent="mjj2ta2AXYqXHHgOmP91-7" connectable="0" vertex="1">
          <mxGeometry relative="1" as="geometry" />
        </mxCell>
        <mxCell id="mjj2ta2AXYqXHHgOmP91-9" value="" style="endArrow=none;html=1;rounded=0;endFill=0;entryX=0.25;entryY=0;entryDx=0;entryDy=0;exitX=0.75;exitY=0;exitDx=0;exitDy=0;" parent="1" source="KslEX3aBoe71YTRa4qj4-37" target="KslEX3aBoe71YTRa4qj4-20" edge="1">
          <mxGeometry relative="1" as="geometry">
            <mxPoint x="374" y="14" as="sourcePoint" />
            <mxPoint x="388" y="150" as="targetPoint" />
            <Array as="points">
              <mxPoint x="345" y="10" />
              <mxPoint x="455" y="10" />
            </Array>
          </mxGeometry>
        </mxCell>
        <mxCell id="mjj2ta2AXYqXHHgOmP91-10" value="Facturer" style="edgeLabel;resizable=0;html=1;;align=center;verticalAlign=middle;" parent="mjj2ta2AXYqXHHgOmP91-9" connectable="0" vertex="1">
          <mxGeometry relative="1" as="geometry" />
        </mxCell>
        <mxCell id="mjj2ta2AXYqXHHgOmP91-12" value="" style="endArrow=none;html=1;rounded=0;endFill=0;entryX=0.141;entryY=-0.001;entryDx=0;entryDy=0;entryPerimeter=0;" parent="1" target="KslEX3aBoe71YTRa4qj4-11" edge="1">
          <mxGeometry relative="1" as="geometry">
            <mxPoint x="190" y="40" as="sourcePoint" />
            <mxPoint x="204" y="386" as="targetPoint" />
            <Array as="points">
              <mxPoint x="200" y="40" />
              <mxPoint x="200" y="300" />
              <mxPoint x="270" y="300" />
            </Array>
          </mxGeometry>
        </mxCell>
        <mxCell id="mjj2ta2AXYqXHHgOmP91-13" value="Posséder" style="edgeLabel;resizable=0;html=1;;align=center;verticalAlign=middle;" parent="mjj2ta2AXYqXHHgOmP91-12" connectable="0" vertex="1">
          <mxGeometry relative="1" as="geometry">
            <mxPoint x="14" as="offset" />
          </mxGeometry>
        </mxCell>
        <mxCell id="mjj2ta2AXYqXHHgOmP91-14" value="" style="endArrow=none;html=1;rounded=0;endFill=0;entryX=0.921;entryY=-0.003;entryDx=0;entryDy=0;entryPerimeter=0;exitX=1;exitY=0.043;exitDx=0;exitDy=0;exitPerimeter=0;" parent="1" source="KslEX3aBoe71YTRa4qj4-37" target="KslEX3aBoe71YTRa4qj4-11" edge="1">
          <mxGeometry relative="1" as="geometry">
            <mxPoint x="380" y="40" as="sourcePoint" />
            <mxPoint x="380" y="302" as="targetPoint" />
            <Array as="points">
              <mxPoint x="380" y="40" />
              <mxPoint x="400" y="40" />
              <mxPoint x="400" y="170" />
              <mxPoint x="400" y="300" />
              <mxPoint x="379" y="300" />
            </Array>
          </mxGeometry>
        </mxCell>
        <mxCell id="mjj2ta2AXYqXHHgOmP91-15" value="Relier" style="edgeLabel;resizable=0;html=1;;align=center;verticalAlign=middle;" parent="mjj2ta2AXYqXHHgOmP91-14" connectable="0" vertex="1">
          <mxGeometry relative="1" as="geometry">
            <mxPoint y="2" as="offset" />
          </mxGeometry>
        </mxCell>
        <mxCell id="mjj2ta2AXYqXHHgOmP91-16" value="" style="endArrow=none;html=1;rounded=0;endFill=0;entryX=0.25;entryY=0;entryDx=0;entryDy=0;exitX=0.997;exitY=0.062;exitDx=0;exitDy=0;exitPerimeter=0;" parent="1" source="KslEX3aBoe71YTRa4qj4-11" target="KslEX3aBoe71YTRa4qj4-56" edge="1">
          <mxGeometry relative="1" as="geometry">
            <mxPoint x="390" y="328" as="sourcePoint" />
            <mxPoint x="470" y="380" as="targetPoint" />
            <Array as="points">
              <mxPoint x="505" y="330" />
            </Array>
          </mxGeometry>
        </mxCell>
        <mxCell id="mjj2ta2AXYqXHHgOmP91-17" value="Disposer" style="edgeLabel;resizable=0;html=1;;align=center;verticalAlign=middle;" parent="mjj2ta2AXYqXHHgOmP91-16" connectable="0" vertex="1">
          <mxGeometry relative="1" as="geometry">
            <mxPoint x="2" as="offset" />
          </mxGeometry>
        </mxCell>
        <mxCell id="kpTzGPzJomDM3rRYmNFj-5" value="0,n" style="text;html=1;align=center;verticalAlign=middle;resizable=0;points=[];autosize=1;strokeColor=none;fillColor=none;" parent="1" vertex="1">
          <mxGeometry x="80" y="8" width="40" height="30" as="geometry" />
        </mxCell>
        <mxCell id="kpTzGPzJomDM3rRYmNFj-6" value="1,1" style="text;html=1;align=center;verticalAlign=middle;resizable=0;points=[];autosize=1;strokeColor=none;fillColor=none;" parent="1" vertex="1">
          <mxGeometry x="240" y="8" width="40" height="30" as="geometry" />
        </mxCell>
        <mxCell id="kpTzGPzJomDM3rRYmNFj-7" value="1,n" style="text;html=1;align=center;verticalAlign=middle;resizable=0;points=[];autosize=1;strokeColor=none;fillColor=none;" parent="1" vertex="1">
          <mxGeometry x="340" y="8" width="40" height="30" as="geometry" />
        </mxCell>
        <mxCell id="kpTzGPzJomDM3rRYmNFj-8" value="1,n" style="text;html=1;align=center;verticalAlign=middle;resizable=0;points=[];autosize=1;strokeColor=none;fillColor=none;" parent="1" vertex="1">
          <mxGeometry x="420" y="8" width="40" height="30" as="geometry" />
        </mxCell>
        <mxCell id="kpTzGPzJomDM3rRYmNFj-9" value="1,n" style="text;html=1;align=center;verticalAlign=middle;resizable=0;points=[];autosize=1;strokeColor=none;fillColor=none;" parent="1" vertex="1">
          <mxGeometry x="554" y="18" width="40" height="30" as="geometry" />
        </mxCell>
        <mxCell id="kpTzGPzJomDM3rRYmNFj-10" value="1,n" style="text;html=1;align=center;verticalAlign=middle;resizable=0;points=[];autosize=1;strokeColor=none;fillColor=none;" parent="1" vertex="1">
          <mxGeometry x="570" y="150" width="40" height="30" as="geometry" />
        </mxCell>
        <mxCell id="kpTzGPzJomDM3rRYmNFj-12" value="1,1" style="text;html=1;align=center;verticalAlign=middle;resizable=0;points=[];autosize=1;strokeColor=none;fillColor=none;" parent="1" vertex="1">
          <mxGeometry x="370" y="38" width="40" height="30" as="geometry" />
        </mxCell>
        <mxCell id="kpTzGPzJomDM3rRYmNFj-13" value="1,n" style="text;html=1;align=center;verticalAlign=middle;resizable=0;points=[];autosize=1;strokeColor=none;fillColor=none;" parent="1" vertex="1">
          <mxGeometry x="350" y="290" width="40" height="30" as="geometry" />
        </mxCell>
        <mxCell id="kpTzGPzJomDM3rRYmNFj-14" value="1,n" style="text;html=1;align=center;verticalAlign=middle;resizable=0;points=[];autosize=1;strokeColor=none;fillColor=none;" parent="1" vertex="1">
          <mxGeometry x="190" y="30" width="40" height="30" as="geometry" />
        </mxCell>
        <mxCell id="kpTzGPzJomDM3rRYmNFj-15" value="1,n" style="text;html=1;align=center;verticalAlign=middle;resizable=0;points=[];autosize=1;strokeColor=none;fillColor=none;" parent="1" vertex="1">
          <mxGeometry x="240" y="290" width="40" height="30" as="geometry" />
        </mxCell>
        <mxCell id="kpTzGPzJomDM3rRYmNFj-16" value="0,n" style="text;html=1;align=center;verticalAlign=middle;resizable=0;points=[];autosize=1;strokeColor=none;fillColor=none;" parent="1" vertex="1">
          <mxGeometry x="390" y="310" width="40" height="30" as="geometry" />
        </mxCell>
        <mxCell id="kpTzGPzJomDM3rRYmNFj-17" value="0,n" style="text;html=1;align=center;verticalAlign=middle;resizable=0;points=[];autosize=1;strokeColor=none;fillColor=none;" parent="1" vertex="1">
          <mxGeometry x="500" y="340" width="40" height="30" as="geometry" />
        </mxCell>
        <mxCell id="kpTzGPzJomDM3rRYmNFj-18" value="1,1" style="text;html=1;align=center;verticalAlign=middle;resizable=0;points=[];autosize=1;strokeColor=none;fillColor=none;" parent="1" vertex="1">
          <mxGeometry x="394" y="340" width="40" height="30" as="geometry" />
        </mxCell>
        <mxCell id="kpTzGPzJomDM3rRYmNFj-19" value="0,n" style="text;html=1;align=center;verticalAlign=middle;resizable=0;points=[];autosize=1;strokeColor=none;fillColor=none;" parent="1" vertex="1">
          <mxGeometry x="484" y="428" width="40" height="30" as="geometry" />
        </mxCell>
      </root>
    </mxGraphModel>
  </diagram>
</mxfile>
